#!OML:ASF H:\IndianDance\Patient Classification 1\Patient 1\Session 1\dancer.ASF
:FULLY-SPECIFIED
:DEGREES
2701
root 6.6288 14.4417 -8.77276 -164.881 10.7397 -172.464
lowerback 17.6883 2.29161 -7.34667
upperback -1.92743 1.55185 -10.2985
thorax -12.0769 1.27275 -8.01712
lowerneck -17.3278 15.4939 11.5473
upperneck 13.4465 19.4662 -7.4765
head 8.84992 9.13414 -1.54531
rclavicle 9.85972e-014 -3.18055e-015
rhumerus -35.9735 53.7763 -52.9324
rradius 118.079
rwrist 17.2782
rhand -50.4357 58.9408
rfingers 7.12502
rthumb -23.0072 30.2939
lclavicle 9.85972e-014 -3.18055e-015
lhumerus 12.7799 23.6567 46.6695
lradius 32.2344
lwrist 54.9557
lhand -4.1287 30.4362
lfingers 7.12502
lthumb 21.6304 -300.752
rfemur 133.097 201.72 -133.444
rtibia 69.3819
rfoot 162.155 -182.806
rtoes -1.01129
lfemur -49.317 25.2264 -3.39966
ltibia 36.1041
lfoot -26.2461 23.3629
ltoes 4.16699
2702
root 6.67461 14.4481 -8.76043 -164.867 11.4811 -172.616
lowerback 17.6219 2.49567 -7.54115
upperback -2.04441 1.78669 -10.4162
thorax -12.159 1.39627 -8.12232
lowerneck -17.3539 15.4138 11.5137
upperneck 13.7306 19.3309 -7.26073
head 8.91231 9.08177 -1.48651
rclavicle -6.67916e-014 -5.40694e-014
rhumerus -35.3764 54.0903 -52.4188
rradius 118.026
rwrist 17.1759
rhand -50.3425 58.8503
rfingers 7.12502
rthumb -22.9178 30.1923
lclavicle -6.67916e-014 -5.40694e-014
lhumerus 13.3114 24.659 46.9392
lradius 31.1744
lwrist 54.3443
lhand -3.89101 30.9544
lfingers 7.12502
lthumb 21.8586 -300.26
rfemur 132.879 201.005 -134.005
rtibia 69.7273
rfoot 162.035 -184.23
rtoes -1.23938
lfemur -48.4074 25.0461 -2.81859
ltibia 35.514
lfoot -26.8943 23.5454
ltoes 5.76735
2703
root 6.72533 14.4534 -8.7495 -164.876 12.2562 -172.911
lowerback 17.4965 2.69836 -7.88362
upperback -2.1642 2.0058 -10.568
thorax -12.2154 1.52689 -8.1751
lowerneck -17.4523 15.327 11.4514
upperneck 14.0875 19.1791 -6.99937
head 9.0031 9.02071 -1.40527
rclavicle -4.77083e-015 1.81292e-013
rhumerus -34.8526 54.3477 -52.0063
rradius 117.973
rwrist 17.0887
rhand -50.2285 58.7099
rfingers 7.12502
rthumb -22.8084 30.0384
lclavicle -4.77083e-015 1.81292e-013
lhumerus 13.7488 25.4553 47.125
lradius 30.2933
lwrist 53.9206
lhand -3.87595 31.5607
lfingers 7.12502
lthumb 21.8731 -299.656
rfemur 132.713 200.213 -134.739
rtibia 69.8349
rfoot 161.652 -185.737
rtoes -0.703521
lfemur -47.4875 24.888 -2.42318
ltibia 34.8852
lfoot -27.4666 23.7279
ltoes 6.93758
2704
root 6.77977 14.4568 -8.7402 -164.918 13.0086 -173.336
lowerback 17.3388 2.88429 -8.33882
upperback -2.27789 2.19298 -10.7413
thorax -12.2527 1.65428 -8.17782
lowerneck -17.615 15.2306 11.3563
upperneck 14.496 19.0112 -6.71027
head 9.11573 8.95031 -1.30773
rclavicle 4.92986e-014 -1.65389e-013
rhumerus -34.4253 54.5378 -51.701
rradius 117.922
rwrist 17.0322
rhand -50.0989 58.5434
rfingers 7.12502
rthumb -22.684 29.8567
lclavicle 4.92986e-014 -1.65389e-013
lhumerus 14.0971 26.0639 47.2451
lradius 29.5603
lwrist 53.494
lhand -3.92045 32.1973
lfingers 7.12502
lthumb 21.8303 -299.014
rfemur 132.6 199.431 -135.595
rtibia 69.6987
rfoot 161.087 -187.162
rtoes 0.187032
lfemur -46.5736 24.6955 -2.21026
ltibia 34.2393
lfoot -27.9238 23.9143
ltoes 7.86274
2705
root 6.83714 14.4589 -8.7321 -164.997 13.6834 -173.854
lowerback 17.1844 3.03717 -8.84897
upperback -2.38336 2.3313 -10.9206
thorax -12.2892 1.76515 -8.14387
lowerneck -17.8183 15.124 11.245
upperneck 14.9274 18.8269 -6.41203
head 9.24049 8.87102 -1.2043
rclavicle -9.54166e-015 1.81292e-013
rhumerus -34.1187 54.6582 -51.5273
rradius 117.868
rwrist 17.0287
rhand -49.9559 58.3653
rfingers 7.12502
rthumb -22.5468 29.6618
lclavicle -9.54166e-015 1.81292e-013
lhumerus 14.3488 26.4956 47.3035
lradius 28.9587
lwrist 52.9498
lhand -3.96215 32.7925
lfingers 7.12502
lthumb 21.7903 -298.414
rfemur 132.553 198.729 -136.498
rtibia 69.349
rfoot 160.439 -188.334
rtoes 1.25075
lfemur -45.6964 24.4063 -2.11789
ltibia 33.6159
lfoot -28.2868 24.1098
ltoes 8.59631
